<svg width="464" height="644" viewBox="0 0 464 644" fill="none" xmlns="http://www.w3.org/2000/svg">
<path d="M0.477314 306C8.90184 235.792 71.509 220.69 125.477 175C152.064 152.491 170.478 144.185 196.477 121C242.381 80.0646 236.811 -9.66666 298.477 1.00001C360.144 11.6667 423.404 -10.2108 453.977 45C488.888 108.043 419.477 102.5 375.477 212C331.477 321.5 435.836 304.314 433.477 370C431.976 411.814 404.184 431.159 403.977 473C403.704 528.305 476.521 554.997 453.977 605.5C426.483 667.094 282.477 626 282.477 626C230.644 636 66.7746 676.04 59.4773 588C55.2001 536.396 121.096 524.595 125.477 473C132.371 391.829 -9.22814 386.883 0.477314 306Z" fill="#E5E5E5" fill-opacity="0.06"/>
</svg>
