<svg width="111" height="111" viewBox="0 0 111 111" fill="none" xmlns="http://www.w3.org/2000/svg">
<path d="M55.3919 110.028C34.5558 110.028 16.4033 98.5519 7.00577 81.6063C-13.7267 44.2433 14.8698 -1.11345 56.6145 0.215418C83.1699 0.751088 105.602 20.2103 109.881 46.0872C115.496 79.4842 89.542 110.028 55.3919 110.028Z" fill="url(#paint0_radial_3_93)"/>
<g opacity="0.75">
<path d="M77.3263 63.9911C75.0365 63.4245 74.4045 66.2574 75.6996 66.8961C76.9948 67.545 80.2482 69.4817 80.9009 68.1837C81.5537 66.8961 79.927 64.6401 77.3263 63.9911Z" fill="#056DB1"/>
<path d="M100.069 40.0919C97.8515 40.5967 95.1991 41.7092 97.4681 43.3265C99.7476 44.9438 103.312 44.2948 103.643 42.3582C103.964 40.4112 104.296 39.1236 100.069 40.0919Z" fill="#056DB1"/>
<path d="M55.5577 92.0931C50.7916 89.2499 43.86 88.2197 43.2073 91.1247C42.5546 94.0297 47.1031 98.552 52.6255 97.903C58.1583 97.2643 58.8111 94.0297 55.5577 92.0931Z" fill="#056DB1"/>
<path d="M71.0994 107.772C66.7995 109.039 62.2821 109.801 57.6093 109.976C58.6764 103.249 65.1107 105.371 68.5505 106.299C69.5556 106.577 70.3948 107.123 71.0994 107.772Z" fill="#056DB1"/>
<path d="M25.3448 91.7737C27.4481 92.6905 28.9194 88.2198 25.9975 84.3465C23.0757 80.4732 21.7702 75.6212 18.1957 74.6529C14.6211 73.6846 12.6732 86.2831 25.3448 91.7737Z" fill="#056DB1"/>
<path d="M11.0465 75.9405C9.89647 76.1466 9.41986 78.5262 12.0205 78.8455C14.6211 79.1751 14.6211 75.3018 11.0465 75.9405Z" fill="#056DB1"/>
<path d="M39.9642 62.7035C37.6744 62.4974 35.4157 63.6718 35.7369 66.2574C36.0581 68.8431 39.6327 66.2574 41.2594 66.2574C42.8861 66.2574 43.5388 63.0228 39.9642 62.7035Z" fill="#056DB1"/>
<path d="M62.3856 32.6647C60.417 31.7375 60.1062 35.8993 61.7329 36.538C63.3596 37.187 67.9081 35.24 62.3856 32.6647Z" fill="#056DB1"/>
</g>
<path d="M41.5909 53.6589C30.546 55.5955 28.9193 55.9149 18.8484 64.3208C12.1862 69.8732 5.23394 68.0807 1.29674 66.2265C0.561107 62.6416 0.167358 58.9229 0.167358 55.1114C0.167358 39.4945 6.72593 25.392 17.2528 15.3997C19.4182 16.6771 21.6562 18.4077 23.3969 20.7152C28.2666 27.1741 27.2926 29.7598 41.5909 37.187C55.8788 44.6143 52.6358 51.7222 41.5909 53.6589Z" fill="url(#paint1_linear_3_93)"/>
<path d="M105.311 31.583C95.1162 29.4609 88.1639 40.9263 81.222 40.0919C73.0989 39.1236 75.3783 27.174 68.5504 14.5755C65.1312 8.27107 64.8929 3.90331 65.5042 1.12195C83.1491 4.35657 97.8411 15.9353 105.311 31.583Z" fill="url(#paint2_linear_3_93)"/>
<path d="M110.627 55.1113C110.627 76.4248 98.4214 94.895 80.5796 104.001C76.5077 97.6043 83.1078 92.8554 90.9718 87.9004C100.722 81.7609 91.6246 79.1752 93.2409 69.1623C94.8676 59.1494 88.6924 58.5004 91.6142 50.1049C93.6968 44.1095 104.555 49.7958 110.596 53.5455C110.616 54.0606 110.627 54.5859 110.627 55.1113Z" fill="url(#paint3_linear_3_93)"/>
<path d="M58.8109 71.748C52.9051 73.5713 49.7139 66.5767 42.2435 68.194C34.7732 69.8113 28.598 83.0485 38.669 82.7292C48.7399 82.4099 51.3405 81.1119 58.8109 86.2831C66.2812 91.4544 75.057 87.9005 77.6577 79.8242C80.2479 71.748 78.6212 65.6084 58.8109 71.748Z" fill="url(#paint4_linear_3_93)"/>
<path d="M71.151 47.5192C68.0427 48.5082 67.2553 50.1049 68.2292 52.0415C69.2032 53.9782 73.0989 53.6588 75.0468 56.5638C76.9947 59.4688 81.8747 63.0227 83.1698 56.5638C84.4753 50.1049 78.3002 45.2529 71.151 47.5192Z" fill="url(#paint5_linear_3_93)"/>
<path opacity="0.5" d="M59.7849 30.7178C59.2047 35.0238 55.2364 30.7178 48.74 29.4301C42.2436 28.1425 39.643 24.2589 42.5648 21.6732C45.4867 19.0876 49.3824 17.151 53.2886 19.407C57.1843 21.6732 60.4273 25.8762 59.7849 30.7178Z" fill="#056DB1"/>
<path d="M52.9569 5.20138C44.8338 5.20138 40.9381 9.72367 33.4678 12.3093C29.0125 13.8442 25.4897 12.0621 23.3657 10.3727C32.4006 3.96522 43.4558 0.194946 55.4021 0.194946C55.8166 0.194946 56.2207 0.194935 56.6247 0.215538C57.1946 2.54364 56.9874 5.20138 52.9569 5.20138Z" fill="url(#paint6_linear_3_93)"/>
<path opacity="0.45" d="M107.995 71.9127C103.488 85.871 93.5101 97.3982 80.5795 104.001C77.5645 105.536 74.394 106.803 71.0992 107.782C66.7994 109.049 62.2819 109.811 57.6091 109.986C56.8734 110.017 56.1378 110.028 55.3918 110.028C34.5557 110.028 16.4031 98.552 7.00566 81.6063C4.37396 76.8677 2.4261 71.6964 1.29674 66.2264C0.561107 62.6415 0.167358 58.9227 0.167358 55.1112C0.167358 48.4772 1.34853 42.1213 3.51399 36.2392C9.76171 54.7919 24.06 78.7322 56.5626 83.1721C62.9036 84.0374 68.8301 84.1507 74.3629 83.6768C87.9359 82.4922 99.1051 77.7742 107.995 71.9127Z" fill="url(#paint7_linear_3_93)"/>
<path opacity="0.45" d="M110.627 55.1113C110.627 60.9727 109.705 66.6179 107.995 71.9127C103.488 85.8711 93.5102 97.3982 80.5796 104.001C77.5645 105.536 74.3941 106.803 71.0993 107.782C66.7994 109.049 62.282 109.811 57.6092 109.986C56.8735 110.017 56.1379 110.028 55.3919 110.028C34.5558 110.028 16.4032 98.552 7.00574 81.6063C16.5586 85.5105 27.9351 88.1786 41.4252 88.7039C54.5112 89.219 65.3696 87.2102 74.363 83.6666C93.6967 76.0642 104.472 61.3539 110.316 49.2395C110.471 50.6508 110.565 52.093 110.606 53.5352C110.616 54.0605 110.627 54.5859 110.627 55.1113Z" fill="url(#paint8_linear_3_93)"/>
<path d="M109.891 46.118C109.891 46.118 102.027 17.4803 65.867 8.05462C44.1916 2.39919 29.1473 7.49835 20.5787 12.4842C47.9423 -9.72548 89.7907 -0.907547 105.312 31.5829C108.917 39.1131 109.632 45.0673 109.891 46.118Z" fill="url(#paint9_linear_3_93)"/>
<defs>
<radialGradient id="paint0_radial_3_93" cx="0" cy="0" r="1" gradientUnits="userSpaceOnUse" gradientTransform="translate(58.134 33.6208) scale(67.0302 66.6438)">
<stop stop-color="#00B3DC"/>
<stop offset="1" stop-color="#056DB0"/>
</radialGradient>
<linearGradient id="paint1_linear_3_93" x1="19.1026" y1="-29.553" x2="31.628" y2="128.406" gradientUnits="userSpaceOnUse">
<stop stop-color="#F2F236"/>
<stop offset="1" stop-color="#F2F236" stop-opacity="0"/>
</linearGradient>
<linearGradient id="paint2_linear_3_93" x1="81.0801" y1="-34.4677" x2="93.6056" y2="123.491" gradientUnits="userSpaceOnUse">
<stop stop-color="#F2F236"/>
<stop offset="1" stop-color="#F2F236" stop-opacity="0"/>
</linearGradient>
<linearGradient id="paint3_linear_3_93" x1="86.0012" y1="-34.8579" x2="98.5267" y2="123.101" gradientUnits="userSpaceOnUse">
<stop stop-color="#F2F236"/>
<stop offset="1" stop-color="#F2F236" stop-opacity="0"/>
</linearGradient>
<linearGradient id="paint4_linear_3_93" x1="47.3001" y1="-31.7891" x2="59.8255" y2="126.17" gradientUnits="userSpaceOnUse">
<stop stop-color="#F2F236"/>
<stop offset="1" stop-color="#F2F236" stop-opacity="0"/>
</linearGradient>
<linearGradient id="paint5_linear_3_93" x1="68.6866" y1="-33.4851" x2="81.2121" y2="124.474" gradientUnits="userSpaceOnUse">
<stop stop-color="#F2F236"/>
<stop offset="1" stop-color="#F2F236" stop-opacity="0"/>
</linearGradient>
<linearGradient id="paint6_linear_3_93" x1="37.1386" y1="-30.9834" x2="49.664" y2="126.975" gradientUnits="userSpaceOnUse">
<stop stop-color="#F2F236"/>
<stop offset="1" stop-color="#F2F236" stop-opacity="0"/>
</linearGradient>
<linearGradient id="paint7_linear_3_93" x1="46.9965" y1="126.204" x2="55.1866" y2="51.0956" gradientUnits="userSpaceOnUse">
<stop stop-color="#00ACD8"/>
<stop offset="1" stop-color="#0983BD"/>
</linearGradient>
<linearGradient id="paint8_linear_3_93" x1="52.5664" y1="122.975" x2="61.7203" y2="44.4738" gradientUnits="userSpaceOnUse">
<stop stop-color="#056EB1"/>
<stop offset="1" stop-color="#00A9D7" stop-opacity="0.3"/>
</linearGradient>
<linearGradient id="paint9_linear_3_93" x1="95.5048" y1="-30.0497" x2="61.0602" y2="38.2676" gradientUnits="userSpaceOnUse">
<stop stop-color="#E2FFB5"/>
<stop offset="1" stop-color="#FFFFB3" stop-opacity="0"/>
</linearGradient>
</defs>
</svg>
