<svg width="481" height="709" viewBox="0 0 481 709" fill="none" xmlns="http://www.w3.org/2000/svg">
<path d="M363.5 199.5C309 122 184.113 -47.5 59.1125 13.5C-65.8876 74.5 46 53.5 50 126C54 198.5 60.5001 215 41.5 259C4.28893 345.173 2.22468 451.5 36.6123 499C71 546.5 289.612 719 361.112 708.5C432.612 698 418.112 574 376.612 508.5C335.112 443 152.61 533.47 263.613 434C302.113 399.5 395.112 471 418.112 471C441.112 471 521.863 414.73 453.112 319C379.5 216.5 418 277 363.5 199.5Z" fill="#E5E5E5" fill-opacity="0.06"/>
</svg>
